<svg id="SvgjsSvg1001" width="288" height="288" xmlns="http://www.w3.org/2000/svg" version="1.1" xmlns:xlink="http://www.w3.org/1999/xlink" xmlns:svgjs="http://svgjs.com/svgjs"><defs id="SvgjsDefs1002"></defs><g id="SvgjsG1008"><svg xmlns="http://www.w3.org/2000/svg" width="288" height="288" version="1.0" viewBox="0 0 819 385"><g fill="red" transform="matrix(.1 0 0 -.1 0 385)" class="colorred svgShape"><path d="M7308 3839c-338-49-509-242-458-519 29-158 69-247 442-983 203-401 378-743 388-760 14-22 21-27 24-16 8 21 486 2263 486 2277 0 9-96 12-412 11-227-1-439-5-470-10zM6265 3369c-9-41-485-2280-485-2285 0-2 164-4 365-4 389 0 518 10 653 51 304 93 397 305 282 643-25 75-775 1583-800 1610-5 5-11-2-15-15zM127 2273c-117-569-128-627-127-724 0-129 22-210 80-296 61-92 132-137 275-174 75-19 116-23 245-23 357-1 575 96 771 341 77 97 111 173 147 333 35 151 252 1148 252 1156 0 2-77 3-172 2l-172-3-73-350c-107-513-172-801-198-877-74-217-260-358-473-358-97 0-143 15-197 62-78 69-108 201-85 379 12 88 69 381 174 896 25 121 46 228 46 237 0 14-22 16-183 16l-183 0-127-617zM2200 2886c0-2-83-404-185-892-102-488-185-893-185-901 0-20 724-19 846 2 274 47 458 163 557 353 48 91 70 178 71 282 0 75-3 94-28 143-42 86-155 166-260 184l-40 6 80 37c234 109 349 292 314 501-22 127-90 205-228 261-56 23-63 23-499 26-244 2-443 1-443-2zm675-260c55-25 101-72 111-113 10-39-15-164-41-209-34-58-98-111-192-161l-80-43-127 0c-69 0-126 2-126 5 0 2 20 108 45 236 25 128 45 242 45 255 0 54 1 54 164 54 137 0 156-2 201-24zm-120-694c74-27 123-66 155-123 21-37 25-57 25-124 0-95-15-131-84-203-57-60-139-115-212-144-46-18-80-22-221-26-143-3-168-2-168 11 0 13 110 549 126 611l7 28 156-4c128-4 167-8 216-26zM4447 2678c-615-906-1060-1565-1064-1576-4-9 32-12 161-12l166 0 117 175 116 175 377 0 376 0 34-175 34-175 202 0 202 0-24 98c-44 187-395 1627-405 1665l-10 37-69 0-69 0-144-212zm170-964c-2-2-117-3-254-2l-251 3 186 284 186 285 69-283c38-155 67-284 64-287zM2260 499c0-89 0-90-22-84-13 4-31 9-41 12-35 9-99-9-133-40-68-59-97-155-75-243 16-64 46-103 95-125 48-22 87-23 139-5 20 8 37 10 37 5 0-5 18-9 40-9l40 0 0 290 0 290-40 0-40 0 0-91zm-18-166c15-14 18-32 18-125l0-109-34-14c-60-25-124 2-147 62-23 61-2 148 45 185 27 23 94 23 118 1zM3927 584c-4-4-7-135-7-291l0-283 45 0 45 0 0 73c0 65 3 76 25 97 14 13 26 22 28 19 2-2 29-46 61-96l58-93 44 0c52 0 56-13-43 148l-64 104 60 74c34 40 61 76 61 79 0 3-21 5-47 5-48-1-48-2-113-81l-65-80-5 163-5 163-35 3c-20 2-39 0-43-4zM4682 579c-57-12-102-69-102-129 0-27-3-30-30-30-28 0-30-3-30-35 0-31 3-35 25-35l25 0 0-170 0-170 40 0 40 0 0 170 0 170 45 0c45 0 45 0 45 35 0 35 0 35-45 35-39 0-45 3-45 21 0 11 14 34 30 51 25 24 37 29 60 25 25-5 30-2 39 24 8 22 7 31-2 34-30 9-65 11-95 4zM6322 579c-43-9-89-53-97-93-12-60-16-66-41-66-21 0-24-5-24-35 0-31 3-35 25-35l25 0 0-170 0-170 40 0 40 0 0 170 0 170 45 0c45 0 45 0 45 35 0 35 0 35-45 35-50 0-56 10-30 59 15 30 47 44 82 35 15-4 22 0 26 18 3 13 7 27 9 33 4 13-60 22-100 14zM5791 300c-61-155-111-283-111-286 0-3 21-4 46-2 46 3 47 3 67 55l20 53 98 0 98 0 17-55 18-55 49 0c43 0 48 2 42 18-4 9-52 137-107 285-61 162-106 267-114 267-7 0-57-113-123-280zM152 336c3-267 4-270 89-314 37-20 55-23 115-19 79 4 124 24 158 70 20 27 21 43 24 263l3 234-40 0-41 0 0-200c0-215-5-241-52-274-32-23-100-20-131 4-39 31-47 77-47 283l0 187-41 0-40 0 3-234zM2670 290l0-280 110 0c97 0 116 3 159 24 58 30 80 61 88 125 7 62-17 115-66 143l-36 21 32 32c28 28 33 40 33 83 0 35-6 57-22 77-34 43-75 55-193 55l-105 0 0-280zm189 199c39-14 54-47 40-87-12-35-45-52-99-52l-40 0 0 75 0 75 34 0c18 0 48-5 65-11zm31-222c30-15 49-68 41-110-9-43-50-69-116-75l-55-4 0 101 0 101 53 0c28 0 63-6 77-13zM1343 518c-31-10-33-14-33-54 0-40-2-44-25-44-22 0-25-4-25-35 0-31 3-35 25-35l25 0 0-141 0-141 29-28c36-36 67-44 137-35 44 5 54 10 50 22-3 8-6 24-6 34 0 18-5 20-44 14-37-6-47-4-65 14-19 19-21 32-21 141l0 120 55 0 55 0 0 35 0 35-55 0-55 0 0 55c0 30-3 55-7 54-5-1-23-6-40-11zM758 407c-44-22-47-22-51-5-4 12-15 18-36 18l-31 0 0-205 0-205 40 0 40 0 0 148c0 129 2 151 18 164 32 29 63 39 94 33 47-11 58-51 58-210l0-135 40 0 40 0 0 153c-1 210-19 249-122 263-33 4-53 0-90-19zM1685 415c-139-49-170-269-52-372 56-49 143-56 232-19 38 16 43 30 20 60-13 18-16 18-55 2-53-21-88-20-127 4-34 20-46 38-57 82l-6 27 147 3c167 3 161 0 148 85-9 61-60 117-120 132-56 14-81 13-130-4zM3155 413c-56-20-65-38-37-73 18-22 20-23 43-7 14 10 43 17 70 17 39 0 51-5 68-26 33-42 27-51-31-51-70 1-141-31-168-75-40-66-14-161 50-188 35-14 106-8 148 13 24 13 30 12 57-4 43-27 75-25 75 4 0 13-6 29-12 35-9 9-15 59-18 147-4 115-8 137-26 162-42 57-134 76-219 46zm163-247c4-45-23-81-69-91-61-14-97 20-78 73 13 37 61 63 109 60 33-3 35-5 38-42zM3621 408c-40-19-44-20-53-5-5 10-21 17-38 17l-30 0 0-205 0-205 40 0 40 0 0 148c0 81 4 152 8 158 15 23 73 45 103 39 52-12 59-34 59-197l0-148 40 0 40 0 0 163c0 184-10 215-75 243-48 20-83 18-134-8zM4928 418c-48-13-103-74-119-130-16-59-6-148 23-200 51-95 197-118 277-45 80 73 82 270 5 339-49 43-113 55-186 36zm91-69c77-27 94-186 26-249-36-34-87-32-122 3-23 23-28 37-31 94-4 78 16 129 58 150 31 16 30 16 69 2zM5395 423c-10-3-29-12-42-20-21-14-23-14-23 1 0 12-10 16-45 16l-45 0 0-205 0-205 45 0 45 0 0 143c1 150 3 159 51 190 19 13 33 15 56 8 30-9 32-7 46 27 14 35 14 37-7 44-25 7-53 8-81 1zM6610 419c-13-6-33-17-42-26-17-15-18-15-18 5 0 19-6 22-40 22l-40 0 0-205 0-205 40 0 40 0 0 133c0 114 3 136 20 165 25 40 60 55 96 41 31-11 28-13 43 30 9 27 9 36-1 43-17 10-67 9-98-3zM7087 416c-84-31-127-100-127-202 0-86 27-145 83-182 35-23 51-27 111-26 43 0 86 7 109 17l37 16-16 34-16 34-48-20c-34-14-57-18-83-13-76 14-116 113-82 202 28 73 86 98 161 69 43-16 46-16 59 1 22 29 18 42-16 60-44 22-126 27-172 10zM7411 413c-23-10-43-21-42-25 1-5 1-14 1-20 0-7 7-21 14-31 12-16 16-16 42-2 66 34 154 8 154-46 0-17-4-20-24-15-41 10-125-13-161-45-44-39-59-85-46-137 17-61 52-87 119-87 35 0 70 7 91 18 31 15 36 16 51 2 10-9 34-19 54-22 33-5 36-3 36 17 0 13-8 32-17 43-15 15-19 44-23 151-6 142-16 172-66 195-47 21-135 23-183 4zm169-253c0-46-3-52-32-70-61-37-118-21-118 34 0 49 48 84 118 85 32 1 32 1 32-49zM1040 385c0-32 2-35 30-35l30 0 0-170 0-170 40 0 40 0 0 205 0 205-70 0-70 0 0-35zM6740 385c0-32 2-35 30-35l30 0 0-170 0-170 40 0 40 0 0 205 0 205-70 0-70 0 0-35z" fill="#ffffff" class="color000 svgShape"></path></g></svg></g></svg>